<svg width="232" height="64" viewBox="0 0 232 64" fill="none" xmlns="http://www.w3.org/2000/svg">
<path d="M10.08 46.48C8.352 46.48 6.768 46.048 5.328 45.184C3.92 44.288 2.784 43.12 1.92 41.68C1.088 40.208 0.672 38.592 0.672 36.832V34.624C0.672 34.464 0.752 34.384 0.912 34.384H6.288C6.416 34.384 6.48 34.464 6.48 34.624V36.832C6.48 37.888 6.832 38.8 7.536 39.568C8.24 40.304 9.088 40.672 10.08 40.672C11.072 40.672 11.92 40.288 12.624 39.52C13.328 38.752 13.68 37.856 13.68 36.832C13.68 35.648 12.912 34.624 11.376 33.76C10.864 33.472 10.064 33.024 8.976 32.416C7.888 31.808 6.864 31.232 5.904 30.688C4.144 29.664 2.832 28.384 1.968 26.848C1.136 25.28 0.72 23.52 0.72 21.568C0.72 19.776 1.152 18.176 2.016 16.768C2.88 15.328 4.016 14.192 5.424 13.36C6.864 12.528 8.416 12.112 10.08 12.112C11.776 12.112 13.328 12.544 14.736 13.408C16.176 14.24 17.312 15.376 18.144 16.816C19.008 18.224 19.44 19.808 19.44 21.568V25.504C19.44 25.632 19.376 25.696 19.248 25.696H13.872C13.744 25.696 13.68 25.632 13.68 25.504L13.632 21.568C13.632 20.448 13.28 19.536 12.576 18.832C11.872 18.128 11.04 17.776 10.08 17.776C9.088 17.776 8.24 18.16 7.536 18.928C6.832 19.664 6.48 20.544 6.48 21.568C6.48 22.624 6.704 23.504 7.152 24.208C7.6 24.912 8.416 25.584 9.6 26.224C9.76 26.32 10.064 26.496 10.512 26.752C10.992 26.976 11.504 27.248 12.048 27.568C12.592 27.856 13.072 28.112 13.488 28.336C13.936 28.56 14.208 28.704 14.304 28.768C15.904 29.664 17.168 30.768 18.096 32.08C19.024 33.36 19.488 34.944 19.488 36.832C19.488 38.656 19.056 40.304 18.192 41.776C17.36 43.216 16.224 44.368 14.784 45.232C13.376 46.064 11.808 46.48 10.08 46.48ZM27.3919 46C27.2639 46 27.1999 45.92 27.1999 45.76V18.4H20.9599C20.7999 18.4 20.7199 18.32 20.7199 18.16L20.7679 12.784C20.7679 12.656 20.8319 12.592 20.9599 12.592H39.1999C39.3599 12.592 39.4399 12.656 39.4399 12.784V18.16C39.4399 18.32 39.3759 18.4 39.2479 18.4H32.9599L33.0079 45.76C33.0079 45.92 32.9439 46 32.8159 46H27.3919ZM49.6125 46.48C47.8845 46.48 46.3005 46.048 44.8605 45.184C43.4525 44.288 42.3165 43.12 41.4525 41.68C40.5885 40.208 40.1565 38.592 40.1565 36.832L40.2045 21.616C40.2045 19.856 40.6205 18.256 41.4525 16.816C42.3165 15.376 43.4685 14.224 44.9085 13.36C46.3485 12.496 47.9165 12.064 49.6125 12.064C51.3405 12.064 52.9085 12.496 54.3165 13.36C55.7245 14.224 56.8445 15.376 57.6765 16.816C58.5405 18.256 58.9725 19.856 58.9725 21.616L59.0205 36.832C59.0205 38.592 58.5885 40.208 57.7245 41.68C56.8925 43.12 55.7565 44.288 54.3165 45.184C52.9085 46.048 51.3405 46.48 49.6125 46.48ZM49.6125 40.672C50.5725 40.672 51.4045 40.288 52.1085 39.52C52.8445 38.72 53.2125 37.824 53.2125 36.832L53.1645 21.616C53.1645 20.56 52.8285 19.664 52.1565 18.928C51.4845 18.192 50.6365 17.824 49.6125 17.824C48.6205 17.824 47.7725 18.192 47.0685 18.928C46.3645 19.632 46.0125 20.528 46.0125 21.616V36.832C46.0125 37.888 46.3645 38.8 47.0685 39.568C47.7725 40.304 48.6205 40.672 49.6125 40.672ZM71.502 46.48C69.742 46.48 68.142 46.048 66.702 45.184C65.294 44.288 64.174 43.104 63.342 41.632C62.51 40.16 62.094 38.512 62.094 36.688L62.142 21.712C62.142 19.952 62.542 18.352 63.342 16.912C64.174 15.44 65.294 14.272 66.702 13.408C68.142 12.512 69.742 12.064 71.502 12.064C73.262 12.064 74.846 12.496 76.254 13.36C77.662 14.224 78.782 15.392 79.614 16.864C80.446 18.304 80.862 19.92 80.862 21.712V23.92C80.862 24.048 80.798 24.112 80.67 24.112H75.294C75.166 24.112 75.102 24.048 75.102 23.92V21.712C75.102 20.656 74.75 19.744 74.046 18.976C73.374 18.208 72.526 17.824 71.502 17.824C70.35 17.824 69.47 18.224 68.862 19.024C68.254 19.792 67.95 20.688 67.95 21.712V36.688C67.95 37.872 68.286 38.832 68.958 39.568C69.662 40.304 70.51 40.672 71.502 40.672C72.526 40.672 73.374 40.272 74.046 39.472C74.75 38.64 75.102 37.712 75.102 36.688V34.48C75.102 34.352 75.166 34.288 75.294 34.288H80.718C80.846 34.288 80.91 34.352 80.91 34.48V36.688C80.91 38.512 80.478 40.16 79.614 41.632C78.782 43.104 77.662 44.288 76.254 45.184C74.846 46.048 73.262 46.48 71.502 46.48ZM84.612 46C84.484 46 84.42 45.92 84.42 45.76L84.516 12.832C84.516 12.672 84.58 12.592 84.708 12.592H90.084C90.212 12.592 90.276 12.672 90.276 12.832V24.208L97.812 12.784C97.908 12.656 98.02 12.592 98.148 12.592H103.668C103.796 12.592 103.828 12.656 103.764 12.784L95.46 26.032L104.772 45.808C104.836 45.936 104.756 46 104.532 46H98.676C98.516 46 98.42 45.936 98.388 45.808L91.908 31.696L90.228 34.336V45.76C90.228 45.92 90.164 46 90.036 46H84.612Z" fill="#DB132B"/>
<path d="M141.16 46C141 46 140.92 45.92 140.92 45.76L141.016 12.784C141.016 12.656 141.08 12.592 141.208 12.592H156.568C156.728 12.592 156.808 12.656 156.808 12.784V18.208C156.808 18.336 156.744 18.4 156.616 18.4H146.776V25.84H156.616C156.744 25.84 156.808 25.92 156.808 26.08L156.856 31.504C156.856 31.632 156.776 31.696 156.616 31.696H146.776V45.76C146.776 45.92 146.696 46 146.536 46H141.16ZM161.8 46C161.672 46 161.608 45.92 161.608 45.76L161.656 12.832C161.656 12.672 161.736 12.592 161.896 12.592H167.224C167.384 12.592 167.464 12.672 167.464 12.832L167.416 40.096H177.304C177.464 40.096 177.544 40.176 177.544 40.336V45.76C177.544 45.92 177.464 46 177.304 46H161.8ZM180.91 46C180.75 46 180.67 45.92 180.67 45.76L180.718 12.784C180.718 12.656 180.782 12.592 180.91 12.592H186.286C186.414 12.592 186.478 12.656 186.478 12.784L186.526 45.76C186.526 45.92 186.462 46 186.334 46H180.91ZM189.26 46C189.132 46 189.084 45.92 189.116 45.76L194.588 28.624L189.212 12.784C189.18 12.656 189.228 12.592 189.356 12.592H194.732C194.892 12.592 194.988 12.656 195.02 12.784L198.236 24.208L201.5 12.784C201.532 12.656 201.628 12.592 201.788 12.592H207.116C207.244 12.592 207.292 12.656 207.26 12.784L201.884 28.576L207.308 45.76C207.372 45.92 207.324 46 207.164 46H201.788C201.66 46 201.564 45.92 201.5 45.76L198.236 33.376L194.924 45.76C194.892 45.92 194.796 46 194.636 46H189.26Z" fill="#DB132B"/>
<path d="M120 31.9999L116.5 25.9999L107.5 45.9999H112.761L120 31.9999Z" fill="#1713DB"/>
<path d="M137.5 4.49994L133.5 2.99994L120.5 42.9999H125.761L137.5 4.49994Z" fill="#1713DB"/>
<path d="M114.9 30.9999H119.4L120.9 33.4999L122.9 36.9999L125.9 42.9999H120.139L114.9 30.9999Z" fill="#1713DB"/>
<path d="M136.693 0.897766L132 2.99994L139.193 5.39777L136.693 0.897766Z" fill="#1713DB"/>
</svg>
